/* XPM */
static char *result[] = {
/* columns rows colors chars-per-pixel */
"32 32 7 1 ",
"  c #2C1E31",
". c #403022",
"X c #4D3533",
"o c #6E4C30",
"O c #EC273F",
"+ c #AC2847",
"@ c None",
/* pixels */
"@@@@@@@@@@@@@@@@@@@@@@@@@@@@@@@@",
"@@@@@@@@@@@@@@@@@@@@@@@@@@@@@@@@",
"@@@@@@@@@@@@@@@@@@@@@@@@@@@@@@@@",
"@@@@@@@@@@@@@@@@@@@@@@@@@@@@@@@@",
"@@@@@@@@@@@@@@@@@@@@@@@@@@@@@@@@",
"@@@@@@@@@@@@@@@@@@@@@@@@@@@@@@@@",
"@@@@@@@@@@@@@@@@@@@@@@@@@@@@@@@@",
"@@@@@@@@@@@@@@@@@@@@@@@@@@@@@@@@",
"@@@@@@@@@@@@@@@@@@@@@@@@@@@@@@@@",
"@@@@@@@@@@@@@@@@@@@@@@@@@@@@@@@@",
"@@@@@@@@@@@@@@@@@@@@@@@@@@@@@@@@",
"@@@@@@@@@@@@X@@X@@@@@@@@@@@@@@@@",
"@@@@@@@@@@@@X@@X@@@@@@@@@@@@@@@@",
"@@@@@@@@@@@@oooo@@@@@@@@@@@@@@@@",
"@@@@@@@@@@Xooo o@@@@@@@@@@@@@@@@",
"@@@@@@@@@@oooooo@@@@@@@@@@@@@@@@",
"@@@@@@@@@@@++Ooo@@@@@@@@@@@@@@@@",
"@@@@@@@@@@@XXOoo@@@@@@@@@@@@@@@@",
"@@@@@@@@@@@@@oooo@@@@@@@@@@@@@@@",
"@@@@@@@@@@@@@oooo@@@@@@@@@@@@@@@",
"@@@@@@@@@@@@ooooo@@@@@@@@@@@@@@@",
"@@@@@@@@@@@ooooooo@@@o@@@@@@@@@@",
"@@@@@@@@@@@ooooooo@@@@o@@@@@@@@@",
"@@@@@@@@@@@oooooooo@@@o@@@@@@@@@",
"@@@@@@@@@@@@Xoooooo@@@o@@@@@@@@@",
"@@@@@@@@@@@@oXoooooo@@o@@@@@@@@@",
"@@@@@@@@@@@@oXoooooo@@o@@@@@@@@@",
"@@@@@@@@@@@@oXoooooooo@@@@@@@@@@",
"@@@@@@@@@@@@oXooXooooo@@@@@@@@@@",
"@@@@@@@@@@@ooXooXXooo@@@@@@@@@@@",
"@@@@@@@@@@@..oo..oo..@@@@@@@@@@@",
"@@@@@@@@@@@@@......@@@@@@@@@@@@@"
};
