/* XPM */
static char *result[] = {
/* columns rows colors chars-per-pixel */
"32 32 8 1 ",
"  c #3E734E",
". c #407C52",
"X c #696A6A",
"o c #679647",
"O c #7AB055",
"+ c #4D9262",
"@ c #847E87",
"# c #9BADB7",
/* pixels */
"++++++++++++++++++++++++++++++++",
"++++++++++++++++++++++ +++++++++",
"+++++++++++++++++++++ + ++++++++",
"++++++++++++++++++++++ +++++++++",
"++++++++++++++++++++++++++++++++",
"++++++++++++++++++++++++++++++++",
"+++++++++++++++##O++++++++++++++",
"++++++++++++##########++++++++++",
"++++++O++++###########++++++++++",
"++++++O+++###@@@####X@@+++++++++",
"++++++O+O#@@@@@@@@@@XX@@++++++++",
"++++++O+O#@@@@@@@@@@XXX@@+++++++",
"++++++++#@@@@@@@@@@XXXXX@+++++++",
"++++++####@@@@@@@@@XX##XX+++++++",
"+++++#######@@X@@@@XX###@+++++++",
"O++++#######XXX@@@@XX@@XX+++++++",
"+O+++###@@####X@@@XXX@@X#++++++O",
"O+++#@@@X###X##X#@XXX@@##+++++++",
"++++@@@@X@@@X@##X@XX###@#+++++++",
"++++@@@@X@@@X@@XX@@@@XXXXX++++++",
"++++@@@@X@@@@@@X@@@@@@XXXX++++++",
"++++X@@XXX@@@@@@X@@@@@@XXX++++++",
"++++XXX##XX@@@@@X###@@XXX.++++++",
"++++.XX@##XX@@@@##@@X@XX..++++++",
"+++++...@XXX@@@#@@XXXXX..O++++++",
"+++++++.....XXXXXXX....o+O++++++",
"++++++++++...........++O+O++++++",
"+++++++++++++++++++++++O++++++++",
"++++++++++++++++++++++++++++++++",
"+++++++++++++O++++++++++++++++++",
"++++++++++++O+O+++++++++++++++++",
"+++++++++++++O++++++++++++++++++"
};
